HIERARCHY
ROOT Hips
{
	OFFSET -0.179506 -22.333345 2.821913
	CHANNELS 6 Xposition Yposition Zposition Zrotation Yrotation Xrotation 
	JOINT LeftUpLeg
	{
		OFFSET 6.951974 -9.140623 -0.681533
		CHANNELS 3 Zrotation Yrotation Xrotation
		JOINT LeftLeg
		{
			OFFSET 3.427654 -37.519855 -0.449580
			CHANNELS 3 Zrotation Yrotation Xrotation
			JOINT LeftFoot
			{
				OFFSET -1.359570 -39.796059 -4.369333
				CHANNELS 3 Zrotation Yrotation Xrotation
				JOINT LeftToe
				{
					OFFSET 2.635814 -5.579078 11.928840
					CHANNELS 3 Zrotation Yrotation Xrotation
					End Site
					{
						OFFSET 0.000000 0.000000 0.000000
					}
				}
			}
		}
	}
	JOINT RightUpLeg
	{
		OFFSET -6.767048 -9.052170 -0.431982
		CHANNELS 3 Zrotation Yrotation Xrotation
		JOINT RightLeg
		{
			OFFSET -3.829005 -38.256897 -0.885003
			CHANNELS 3 Zrotation Yrotation Xrotation
			JOINT RightFoot
			{
				OFFSET 1.577377 -39.841461 -4.231180
				CHANNELS 3 Zrotation Yrotation Xrotation
				JOINT RightToe
				{
					OFFSET -2.537174 -4.814398 12.334795
					CHANNELS 3 Zrotation Yrotation Xrotation
					End Site
					{
						OFFSET 0.000000 0.000000 0.000000
					}
				}
			}
		}
	}
	JOINT Spine
	{
		OFFSET -0.253288 10.896323 -2.669631
		CHANNELS 3 Zrotation Yrotation Xrotation
		JOINT Spine1
		{
			OFFSET 0.548704 13.518043 0.109247
			CHANNELS 3 Zrotation Yrotation Xrotation
			JOINT Spine2
			{
				OFFSET 0.145701 5.292222 2.542457
				CHANNELS 3 Zrotation Yrotation Xrotation
				JOINT Neck
				{
					OFFSET -0.277840 21.387037 -4.285703
					CHANNELS 3 Zrotation Yrotation Xrotation
					JOINT Head
					{
						OFFSET 0.515184 6.496960 5.134897
						CHANNELS 3 Zrotation Yrotation Xrotation
						End Site
						{
							OFFSET 0.000000 0.000000 0.000000
						}
					}
				}
				JOINT LeftShoulder
				{
					OFFSET 7.884473 12.174932 -3.408961
					CHANNELS 3 Zrotation Yrotation Xrotation
					JOINT LeftArm
					{
						OFFSET 9.097692 3.046888 -0.886815
						CHANNELS 3 Zrotation Yrotation Xrotation
						JOINT LeftForeArm
						{
							OFFSET 25.961220 -1.277207 -2.745643
							CHANNELS 3 Zrotation Yrotation Xrotation
							JOINT LeftHand
							{
								OFFSET 24.923361 0.898606 -0.117091
								CHANNELS 3 Zrotation Yrotation Xrotation
								End Site
								{
									OFFSET 0.000000 0.000000 0.000000
								}
							}
						}
					}
				}
				JOINT RightShoulder
				{
					OFFSET -8.175920 11.883285 -3.861528
					CHANNELS 3 Zrotation Yrotation Xrotation
					JOINT RightArm
					{
						OFFSET -9.601238 3.255117 -0.914307
						CHANNELS 3 Zrotation Yrotation Xrotation
						JOINT RightForeArm
						{
							OFFSET -25.374195 -1.332924 -2.140099
							CHANNELS 3 Zrotation Yrotation Xrotation
							JOINT RightHand
							{
								OFFSET -25.529810 0.777228 -0.555919
								CHANNELS 3 Zrotation Yrotation Xrotation
								End Site
								{
									OFFSET 0.000000 0.000000 0.000000
								}
							}
						}
					}
				}
			}
		}
	}
}
MOTION
Frames: 10
Frame Time: 0.033333
-71.133537 29.383383 93.906151 -145.586533 7.882628 76.786391 6.338169 5.952734 -6.464635 -2.200770 17.017290 34.092423 7.192133 3.886211 -24.616003 nan nan nan 3.286991 -6.468621 14.021641 -6.941545 -5.745674 58.429626 0.647342 -7.845125 -10.315054 nan nan nan -12.785402 5.845614 6.050527 3.318055 -10.310049 5.373326 -0.286166 -2.079996 -6.300597 8.178748 -6.772566 8.221111 7.375355 -9.243755 22.770192 -16.512289 -27.671161 3.202842 -62.824640 -36.601011 17.925279 4.592429 -57.996390 13.875920 5.756947 -29.005709 -22.095130 10.715876 17.367616 -2.841450 68.696663 16.538324 16.074812 -125.601409 54.011293 -92.474348 3.634387 24.409136 -14.145470 
-71.207787 28.911440 93.781357 -149.060217 7.120688 76.879054 5.915424 6.626802 -6.703979 -1.879133 18.968783 34.010340 6.903947 4.382036 -24.453328 nan nan nan 2.389696 -5.752077 13.981796 -7.098942 -4.371028 58.127422 0.456225 -8.183528 -10.058986 nan nan nan -11.897531 5.476592 6.240733 3.474570 -10.150765 4.783731 -0.211956 -1.915148 -6.255055 7.461098 -6.593842 7.368907 6.443891 -8.496213 23.677607 -15.889548 -28.042548 2.757342 -61.880210 -37.243470 16.810538 8.377326 -58.459937 10.013029 6.300149 -29.378778 -22.601530 10.413315 18.573137 -3.190047 68.802514 17.968347 17.606171 -126.945464 54.566326 -93.974005 3.834625 24.497068 -14.299802 
-71.252548 28.429564 93.698380 -152.508090 6.628622 76.974577 5.750216 7.201522 -6.999489 -1.536746 20.601557 33.911837 6.689449 4.949149 -24.250324 nan nan nan 1.698371 -5.161801 13.815678 -7.227363 -3.158961 57.777247 0.124428 -8.571262 -9.749154 nan nan nan -10.948584 4.954257 6.425075 3.771457 -10.069805 4.409840 -0.047175 -1.521072 -6.090399 6.578933 -6.193940 6.615481 5.741706 -7.742209 24.180878 -15.216478 -28.341331 2.196834 -60.607589 -37.876233 15.324008 11.753405 -58.900586 6.324294 6.521569 -29.589776 -23.392424 10.006510 19.696016 -3.534250 68.964724 19.524128 18.910273 -128.118193 55.117613 -95.046279 4.082231 24.539461 -14.851203 
-71.340912 27.958296 93.655914 -156.058310 6.136711 76.991571 5.464386 7.708165 -7.092366 -1.058155 22.179332 33.588217 6.632543 5.762647 -24.032259 nan nan nan 0.787926 -4.532752 13.697605 -7.397434 -2.241767 57.261817 -0.096775 -8.766029 -9.583792 nan nan nan -10.015254 4.520476 6.793273 4.053399 -9.903739 3.864677 0.168035 -1.325376 -5.826479 5.863957 -5.694792 6.015916 4.858440 -6.845588 24.688899 -14.600186 -28.294556 1.734614 -59.135425 -38.419533 13.815880 15.317327 -59.319864 2.357105 6.708607 -29.636798 -24.269719 9.653378 20.613291 -4.030618 69.217035 21.055728 20.505032 -128.461057 55.819046 -95.445316 4.246223 24.758333 -15.637518 
-71.488647 27.489151 93.644958 -159.829647 5.571545 77.025974 5.012403 8.187032 -7.067922 -0.433209 24.140477 33.080283 6.494898 6.832089 -23.818740 nan nan nan -0.469510 -3.779613 13.442563 -7.586371 -1.559455 56.684365 -0.087904 -8.675454 -9.619072 nan nan nan -8.967717 4.207848 7.106096 4.195894 -9.583165 3.469500 0.287360 -1.272942 -5.641995 5.344494 -5.130268 5.490993 3.837570 -5.860733 25.221614 -13.962983 -28.068275 1.220734 -57.516710 -38.706483 12.456644 19.246301 -59.594037 -1.939014 7.098748 -29.794700 -24.768397 9.399056 21.551402 -4.446176 69.248311 22.503934 22.162105 -128.305091 56.530365 -95.753924 4.267719 25.086755 -16.210813 
-71.630020 27.010355 93.658104 -163.592851 5.193676 77.061483 4.838874 8.717349 -7.122382 0.191328 26.125308 32.765414 6.210098 7.781892 -23.498809 nan nan nan -1.645341 -3.133126 13.093852 -7.731372 -1.031825 56.058254 -0.162269 -8.557815 -9.720910 nan nan nan -7.817145 3.863523 7.429172 4.359134 -9.273776 3.352625 0.382938 -1.007422 -5.494672 4.709479 -4.822545 4.950591 3.072669 -5.173198 25.538579 -13.003719 -28.065009 0.637508 -55.905650 -38.773356 10.939706 23.405091 -59.729384 -6.379277 7.679791 -29.973338 -25.264089 8.903066 22.669765 -4.834469 69.248173 23.823105 23.371269 -128.380127 56.972897 -96.202228 4.428135 25.393733 -16.567498 
-71.758278 26.539614 93.709862 -167.270611 4.999699 77.075602 4.931624 9.374064 -7.207426 0.698106 27.788261 32.561280 5.711010 8.605856 -23.128105 nan nan nan -2.653609 -2.663067 12.694214 -7.924731 -0.684935 55.365917 -0.242241 -8.428414 -9.840673 nan nan nan -6.614279 3.583618 7.837273 4.571461 -8.994461 3.286125 0.535796 -0.663954 -5.269356 3.888958 -4.327177 4.644054 2.434661 -4.446146 25.482116 -11.980122 -28.352093 0.209599 -54.149918 -38.522385 9.052701 28.011833 -59.863520 -11.232347 7.723680 -30.112105 -26.067229 8.215946 23.628088 -5.485360 69.262791 24.893997 24.219402 -128.904450 57.520731 -97.040732 4.527073 25.358504 -16.991246 
-71.896690 26.071999 93.802223 -170.923521 4.839487 77.151055 5.006963 10.088708 -7.355561 1.179999 29.230625 32.282552 5.241181 9.555963 -22.736802 nan nan nan -3.628038 -2.303415 12.088385 -8.138313 -0.440191 54.681592 -0.314244 -8.401137 -9.980860 nan nan nan -5.453801 3.452656 8.253718 4.773775 -8.637850 2.954184 0.775470 -0.544022 -4.812261 3.094889 -3.696018 4.680591 1.774646 -3.538633 25.180718 -11.288914 -28.559014 0.028132 -52.046359 -38.132692 6.938128 32.157973 -59.921186 -15.911300 7.866341 -30.260470 -27.043924 7.665090 24.302452 -6.045678 69.121595 25.994470 24.970187 -129.359982 58.535236 -98.154852 3.572555 25.137374 -17.758086 
-72.038788 25.603357 93.927902 -174.499852 4.725238 77.222281 5.095407 10.732768 -7.508142 1.718033 30.524107 32.003454 4.917176 10.506630 -22.294564 nan nan nan -4.672228 -2.105450 11.399863 -8.215060 -0.361057 53.947523 -0.459796 -8.339830 -10.019082 nan nan nan -4.336033 3.287643 8.752025 4.981190 -8.297497 2.586183 1.015538 -0.571662 -4.328953 2.222825 -2.933912 4.875974 1.100075 -2.623182 24.827449 -10.702665 -28.448455 -0.083771 -49.840347 -37.687340 4.760518 35.628447 -59.781914 -19.916380 8.850097 -30.286805 -27.782151 7.204023 25.005113 -6.258595 69.043184 27.351401 25.773331 -129.425708 59.691843 -98.987997 1.870764 25.072991 -19.194063 
-72.192558 25.130539 94.058212 -178.061825 4.626793 77.272095 5.262932 11.355900 -7.603796 2.288762 31.921713 31.775615 4.545618 11.294318 -21.811505 nan nan nan -5.824158 -1.954138 10.666890 -8.151628 -0.524606 53.151108 -0.725321 -8.179295 -9.892782 nan nan nan -3.176178 3.020824 9.227389 5.112149 -8.006961 2.944197 1.170720 -0.549519 -4.409514 1.461211 -2.328791 4.986133 0.298285 -1.687357 24.413972 -9.853621 -28.046437 -0.415411 -47.978983 -36.938135 2.774866 39.152667 -59.572553 -23.553064 9.884499 -30.071828 -28.124349 6.458084 25.761681 -6.603163 69.335711 28.663354 26.730726 -129.026891 60.622010 -99.415377 0.802240 25.175834 -20.313940 
